<?xml version="1.0" encoding="UTF-8" standalone="no"?>
<svg
   xmlns:dc="http://purl.org/dc/elements/1.1/"
   xmlns:cc="http://creativecommons.org/ns#"
   xmlns:rdf="http://www.w3.org/1999/02/22-rdf-syntax-ns#"
   xmlns:svg="http://www.w3.org/2000/svg"
   xmlns="http://www.w3.org/2000/svg"
   viewBox="0 0 715.58801 715.58801"
   height="715.58801"
   width="715.58801"
   xml:space="preserve"
   id="svg2"
   version="1.1"><metadata
     id="metadata8"><rdf:RDF><cc:Work
         rdf:about=""><dc:format>image/svg+xml</dc:format><dc:type
           rdf:resource="http://purl.org/dc/dcmitype/StillImage" /></cc:Work></rdf:RDF></metadata><defs
     id="defs6"><clipPath
       id="clipPath18"
       clipPathUnits="userSpaceOnUse"><path
         id="path16"
         d="M 0,536.691 H 536.691 V 0 H 0 Z" /></clipPath></defs><g
     transform="matrix(1.3333333,0,0,-1.3333333,0,715.588)"
     id="g10"><g
       id="g12"><g
         clip-path="url(#clipPath18)"
         id="g14"><g
           transform="translate(529.1907,268.3453)"
           id="g20"><path
             id="path22"
             style="fill:none;stroke:#3bbfee;stroke-width:15;stroke-linecap:butt;stroke-linejoin:miter;stroke-miterlimit:10;stroke-dasharray:none;stroke-opacity:1"
             d="m 0,0 c 0,-144.061 -116.784,-260.845 -260.845,-260.845 -144.061,0 -260.846,116.784 -260.846,260.845 0,144.061 116.785,260.845 260.846,260.845 C -116.784,260.845 0,144.061 0,0 Z" /></g><g
           transform="translate(259.0267,134.2053)"
           id="g24"><path
             id="path26"
             style="fill:#3bbfee;fill-opacity:1;fill-rule:nonzero;stroke:none"
             d="m 0,0 h 127.615 v 113.244 c 0,35.185 -28.644,63.812 -63.803,63.812 C 28.6,177.056 0,148.429 0,113.244 Z m 63.812,269.29 c -22.424,0 -40.702,-18.251 -40.702,-40.693 0,-22.442 18.26,-40.72 40.702,-40.72 22.451,0 40.711,18.278 40.711,40.72 0.018,22.442 -18.26,40.693 -40.711,40.693 M -108.523,-0.505 H 19.092 v 113.244 c 0,35.185 -28.645,63.812 -63.803,63.812 -35.212,0 -63.812,-28.627 -63.812,-63.812 z m -16.083,113.244 V 24.91 h -47.999 v 79.206 c 0,24.258 19.737,43.995 44.013,43.995 4.324,0 8.418,-0.828 12.333,-1.993 -5.161,-10.074 -8.347,-21.304 -8.347,-33.379 M 191.233,24.91 h -48.052 v 87.829 c 0,12.075 -3.168,23.305 -8.347,33.379 3.933,1.165 8.062,1.993 12.387,1.993 24.249,0 44.012,-19.711 44.012,-43.995 z M -44.711,268.785 c -22.425,0 -40.703,-18.251 -40.703,-40.693 0,-22.443 18.26,-40.72 40.703,-40.72 22.451,0 40.711,18.277 40.711,40.72 0.018,22.442 -18.26,40.693 -40.711,40.693 m -138.91,-136.14 c 2.989,0 5.784,-0.578 8.533,-1.388 -4.716,-8.018 -7.59,-17.219 -7.59,-27.141 V 46.391 h -31.359 v 55.839 c 0,16.765 13.65,30.415 30.416,30.415 m 55.011,81.129 c -15.19,0 -27.551,-12.333 -27.551,-27.541 0,-15.155 12.361,-27.479 27.551,-27.479 15.145,0 27.505,12.324 27.505,27.479 0,15.189 -12.36,27.541 -27.505,27.541 M 232.674,46.391 h -31.358 v 57.725 c 0,9.922 -2.937,19.123 -7.6,27.141 2.759,0.81 5.571,1.388 8.579,1.388 16.72,0 30.379,-13.65 30.379,-30.415 z m -85.409,167.383 c -15.189,0 -27.505,-12.333 -27.505,-27.541 0,-15.155 12.316,-27.479 27.505,-27.479 15.19,0 27.551,12.324 27.551,27.479 0,15.189 -12.396,27.541 -27.551,27.541 m -330.886,-33.646 c -10.234,0 -18.536,-8.293 -18.536,-18.482 0,-10.189 8.302,-18.492 18.536,-18.492 10.188,0 18.5,8.303 18.5,18.492 0,10.189 -8.312,18.482 -18.5,18.482 m 385.916,0 c -10.234,0 -18.527,-8.293 -18.527,-18.482 0,-10.189 8.293,-18.492 18.527,-18.492 10.188,0 18.491,8.303 18.491,18.492 0,10.189 -8.303,18.482 -18.491,18.482" /></g></g></g></g></svg>